{
    "asset" : {
        "generator" : "Khronos glTF Blender I/O v1.2.75",
        "version" : "2.0"
    },
    "scene" : 0,
    "scenes" : [
        {
            "name" : "Scene",
            "nodes" : [
                0,
                1,
                2,
                3,
                4
            ]
        }
    ],
    "nodes" : [
        {
            "name" : "Light",
            "rotation" : [
                0.16907575726509094,
                0.7558803558349609,
                -0.27217137813568115,
                0.570947527885437
            ],
            "translation" : [
                4.076245307922363,
                5.903861999511719,
                -1.0054539442062378
            ]
        },
        {
            "name" : "Camera",
            "rotation" : [
                0.483536034822464,
                0.33687159419059753,
                -0.20870360732078552,
                0.7804827094078064
            ],
            "translation" : [
                7.358891487121582,
                4.958309173583984,
                6.925790786743164
            ]
        },
        {
            "name" : "Camera.001",
            "rotation" : [
                0.48170700669288635,
                0.3342515230178833,
                -0.21292178332805634,
                0.7816000580787659
            ],
            "translation" : [
                7.4811320304870605,
                5.34366512298584,
                6.5076398849487305
            ]
        },
        {
            "name" : "Lamp",
            "rotation" : [
                0.16907577216625214,
                0.7558803558349609,
                -0.27217137813568115,
                0.5709474682807922
            ],
            "translation" : [
                4.076244831085205,
                5.903861999511719,
                -1.0054539442062378
            ]
        },
        {
            "mesh" : 0,
            "name" : "Solid_001"
        }
    ],
    "materials" : [
        {
            "doubleSided" : true,
            "emissiveFactor" : [
                0,
                0,
                0
            ],
            "name" : "Bianco",
            "pbrMetallicRoughness" : {
                "baseColorFactor" : [
                    0.6399999856948853,
                    0.6399999856948853,
                    0.6399999856948853,
                    1
                ],
                "metallicFactor" : 0,
                "roughnessFactor" : 0.5
            }
        },
        {
            "doubleSided" : true,
            "emissiveFactor" : [
                0,
                0,
                0
            ],
            "name" : "Nero_001",
            "pbrMetallicRoughness" : {
                "baseColorFactor" : [
                    0.013910220004618168,
                    0.013910220004618168,
                    0.013910220004618168,
                    1
                ],
                "metallicFactor" : 0,
                "roughnessFactor" : 0.5
            }
        }
    ],
    "meshes" : [
        {
            "name" : "Solid.001",
            "primitives" : [
                {
                    "attributes" : {
                        "POSITION" : 0,
                        "NORMAL" : 1
                    },
                    "indices" : 2,
                    "material" : 0
                },
                {
                    "attributes" : {
                        "POSITION" : 3,
                        "NORMAL" : 4
                    },
                    "indices" : 5,
                    "material" : 1
                }
            ]
        }
    ],
    "accessors" : [
        {
            "bufferView" : 0,
            "componentType" : 5126,
            "count" : 40402,
            "max" : [
                1.0063400268554688,
                1.0063400268554688,
                1.0063400268554688
            ],
            "min" : [
                -1.0063400268554688,
                -1.0063400268554688,
                -1.0063400268554688
            ],
            "type" : "VEC3"
        },
        {
            "bufferView" : 1,
            "componentType" : 5126,
            "count" : 40402,
            "type" : "VEC3"
        },
        {
            "bufferView" : 2,
            "componentType" : 5123,
            "count" : 65160,
            "type" : "SCALAR"
        },
        {
            "bufferView" : 3,
            "componentType" : 5126,
            "count" : 21015,
            "max" : [
                0.9998819231987,
                0.9998819231987,
                0.9998819231987
            ],
            "min" : [
                -0.9998819231987,
                -0.9998819231987,
                -0.9998819231987
            ],
            "type" : "VEC3"
        },
        {
            "bufferView" : 4,
            "componentType" : 5126,
            "count" : 21015,
            "type" : "VEC3"
        },
        {
            "bufferView" : 5,
            "componentType" : 5123,
            "count" : 32580,
            "type" : "SCALAR"
        }
    ],
    "bufferViews" : [
        {
            "buffer" : 0,
            "byteLength" : 484824,
            "byteOffset" : 0
        },
        {
            "buffer" : 0,
            "byteLength" : 484824,
            "byteOffset" : 484824
        },
        {
            "buffer" : 0,
            "byteLength" : 130320,
            "byteOffset" : 969648
        },
        {
            "buffer" : 0,
            "byteLength" : 252180,
            "byteOffset" : 1099968
        },
        {
            "buffer" : 0,
            "byteLength" : 252180,
            "byteOffset" : 1352148
        },
        {
            "buffer" : 0,
            "byteLength" : 65160,
            "byteOffset" : 1604328
        }
    ],
    "buffers" : [
        {
            "byteLength" : 1669488,
            "uri" : "data:application/octet-stream;base64,"
        }
    ]
}
